<svg width="823" height="686" viewBox="0 0 823 686" fill="none" xmlns="http://www.w3.org/2000/svg">
<g clip-path="url(#clip0)">
<mask id="mask0" style="mask-type:alpha" maskUnits="userSpaceOnUse" x="-72" y="-104" width="923" height="790">
<path d="M-72 -103.537H851V686H-72V-103.537Z" fill="white"/>
</mask>
<g mask="url(#mask0)">
<path d="M438.52 793.956C528.859 792.653 616.399 750.434 687.435 687.593C738.781 642.117 783.758 583.509 801.806 512.854C819.951 442.199 797.077 381.963 748.24 333.123C703.07 288.081 637.536 284.5 587.155 247.056C550.479 219.814 525.578 161.965 482.821 150.786C443.635 140.476 407.442 160.12 375.399 187.688C343.355 215.255 317.586 236.853 286.314 265.398C261.124 288.407 232.748 306.749 202.442 319.556C147.138 342.999 81.99 350.922 43.5766 401.39C14.5253 439.703 8.54129 495.814 21.4744 544.003C34.4076 592.192 64.231 632.784 99.1698 664.15C190.281 746.093 322.315 795.692 438.52 793.956Z" fill="#E3E6E8"/>
<path d="M677.5 553.735C649.3 584.737 603.7 556.487 578.3 524.761C573.8 519.256 570.7 511.867 569.4 503.61C563.6 463.771 607 454.064 608.3 418.282C608.9 402.636 600.8 389.743 594.8 376.704C581.2 347.151 577.3 309.63 580.2 274.282C583.1 238.934 592.2 205.179 602.9 173.018C611.6 146.797 627.2 116.954 646.8 123.328C659.4 127.384 667.5 145.638 671.2 163.602C676.2 188.374 675.5 214.885 672.1 240.238C670.6 251.392 668.6 263.127 670.7 274.137C676 302.386 703.3 308.761 713.2 334.113C723.1 359.61 711.3 391.626 700.1 416.543C690.5 437.984 684.8 451.312 691 469.421C692.7 474.201 695 478.547 697.9 481.879C704 489.413 715.2 512.302 677.5 553.735Z" fill="#F3AF47"/>
<path d="M640.1 196.342C640.1 205.179 634 694.547 634 694.547L658 693.244L640.1 196.342Z" fill="#7C4A0F"/>
<path d="M641.6 539.682L592 462.901L645.9 533.163C646.8 534.177 647.2 535.916 647 537.509C646.8 539.103 646 540.407 644.9 540.986C643.8 541.565 642.6 541.131 641.8 539.972L641.6 539.682ZM637.1 319.481L617 262.982L641.1 316.294C641.9 317.308 642.2 318.901 641.8 320.205C641.4 321.654 640.4 322.523 639.4 322.378C638.3 322.233 637.5 321.219 637.2 319.626L637.1 319.481ZM642.6 437.26L693 333.968L647.5 442.04C646.6 444.068 644.8 444.793 643.4 443.489C642 442.185 641.6 439.578 642.4 437.549L642.6 437.26Z" fill="#7C4A0F"/>
<path d="M183.5 643.408C164.4 664.414 133.5 645.292 116.4 623.851C113.4 620.085 111.3 615.014 110.4 609.509C106.5 582.563 135.8 575.899 136.7 551.851C137.1 541.276 131.6 532.584 127.5 523.746C118.3 503.61 115.7 478.258 117.6 454.209C119.5 430.161 125.7 407.417 133 385.686C138.9 367.867 149.5 347.73 162.7 352.076C171.2 354.829 176.7 367.143 179.2 379.312C182.6 395.972 182.1 413.936 179.8 431.175C178.8 438.708 177.4 446.531 178.8 454.064C182.4 473.187 200.9 477.533 207.6 494.773C214.3 512.012 206.3 533.742 198.8 550.547C192.4 565.034 188.4 574.016 192.6 586.475C193.8 589.662 195.4 592.559 197.3 595.022C201.4 599.948 209 615.449 183.5 643.408Z" fill="#F8CD99"/>
<path d="M156.8 395.972C156.8 402.346 150.7 709.179 150.7 709.179L168.3 711.352L156.8 395.972Z" fill="#7C6242"/>
<path d="M161.1 581.549L196.9 526.644L158 576.913C157.1 578.072 157.1 580.101 157.9 581.404C158.7 582.708 160 582.853 161 581.694L161.1 581.549ZM154.2 485.646L139.6 443.779L157 483.328C157.4 484.487 157.1 485.791 156.4 486.515C155.7 487.239 154.7 486.95 154.2 485.936C154.3 485.936 154.2 485.646 154.2 485.646Z" fill="#7C6242"/>
<path d="M159.5 572.857L194.7 496.366C194.7 496.366 159.5 572.857 159.5 572.857Z" fill="#9C4F5F"/>
</g>
</g>
<defs>
<clipPath id="clip0">
<rect width="823" height="720" fill="white" transform="translate(0 -34)"/>
</clipPath>
</defs>
</svg>
