<svg width="138" height="57" viewBox="0 0 138 57" fill="none" xmlns="http://www.w3.org/2000/svg">
<g clip-path="url(#clip0)" filter="url(#filter0_d)">
<g filter="url(#filter1_d)">
<path d="M46.6833 21.0265V25.3069H52.9808V42.3992H57.3856V25.3069H63.683V21.0265H46.6833ZM82.8179 22.2678C81.5374 21.3782 79.6243 20.9067 77.2626 20.9067C76.1977 20.9067 70.9544 21.0211 70.7334 21.0265L69.9014 21.0428V42.3992H74.3344V34.6529H77.1662C78.8497 34.691 80.5169 34.3175 82.0249 33.5651C84.0941 32.2693 85.3302 29.975 85.2814 27.5261C85.2814 25.136 84.4538 23.3665 82.8179 22.2668V22.2678ZM74.3235 25.3058C75.1902 25.3058 76.4978 25.2438 77.0362 25.2438C80.1161 25.2438 80.7455 26.1944 80.7455 27.6176C80.7553 28.4495 80.3772 29.24 79.7261 29.7518C78.8172 30.1928 77.8108 30.3888 76.8033 30.3213H74.3344L74.3235 25.3069V25.3058ZM94.6924 25.7566C92.5127 25.7392 90.424 26.6386 88.9333 28.2382C87.3864 29.8313 86.5381 31.9818 86.5782 34.2086C86.5479 36.4463 87.3961 38.6055 88.9398 40.2193C90.4316 41.8123 92.5149 42.7096 94.6924 42.6954C96.209 42.7139 97.6954 42.2784 98.9629 41.4432V42.1314H103.34V26.1203L99.03 27.0252C97.743 26.1759 96.2318 25.7338 94.6924 25.7566ZM97.6488 31.0889C98.4374 31.9317 98.8664 33.0522 98.8437 34.2086C98.8686 35.3737 98.4407 36.504 97.6488 37.3555C96.9338 38.1417 95.9219 38.5892 94.8624 38.5892C93.8029 38.5892 92.7922 38.1428 92.0761 37.3566C91.2853 36.5018 90.8574 35.3704 90.8877 34.2032C90.8617 33.0468 91.2885 31.9274 92.0761 31.0835C92.7824 30.2832 93.7954 29.8258 94.8603 29.8258C95.9241 29.8258 96.937 30.2832 97.6434 31.0835L97.6488 31.0889ZM114.354 32.4958L112.655 31.8403C111.127 31.2719 111.127 31.0998 111.127 30.8679C111.127 30.5031 111.127 29.8313 113.074 29.8313C114.473 29.8345 115.851 30.1721 117.095 30.8167L118.307 31.3851V26.7922L117.74 26.582C116.221 26.0049 114.613 25.7055 112.989 25.7C109.07 25.7 106.726 27.5664 106.726 30.6915C106.726 33.8166 108.99 34.9371 110.734 35.5741L112.559 36.2296C114.325 36.8611 114.496 37.0375 114.496 37.3675C114.496 37.8346 114.496 38.6142 112.281 38.6142C110.622 38.6099 108.997 38.1351 107.593 37.2477L106.312 36.5072V41.2265L106.772 41.466C108.476 42.3099 110.353 42.739 112.253 42.7183C116.415 42.7183 118.901 40.7594 118.901 37.4872C118.93 34.4874 116.856 33.429 114.354 32.4958ZM129.094 32.4958L127.395 31.8403C125.866 31.2719 125.866 31.0998 125.866 30.8679C125.866 30.5031 125.866 29.8313 127.814 29.8313C129.213 29.8345 130.591 30.1721 131.834 30.8167L133.047 31.3851V26.7922L132.48 26.582C130.962 26.0049 129.353 25.7055 127.73 25.7C123.81 25.7 121.466 27.5664 121.466 30.6915C121.466 33.8166 123.731 34.9371 125.475 35.5741L127.299 36.2296C129.065 36.8611 129.236 37.0375 129.236 37.3675C129.236 37.8346 129.236 38.6142 127.021 38.6142C125.363 38.6099 123.738 38.1351 122.333 37.2477L121.053 36.5072V41.2265L121.511 41.466C123.215 42.3099 125.094 42.739 126.993 42.7183C131.155 42.7183 133.641 40.7594 133.641 37.4872C133.67 34.4874 131.625 33.429 129.094 32.4958Z" fill="white"/>
<path d="M63.3938 42.4439C64.6664 42.4439 65.698 41.407 65.698 40.1278C65.698 38.8487 64.6664 37.8118 63.3938 37.8118C62.1212 37.8118 61.0895 38.8487 61.0895 40.1278C61.0895 41.407 62.1212 42.4439 63.3938 42.4439Z" fill="url(#paint0_linear)"/>
</g>
<path d="M19.2609 47.6313C23.7698 47.6313 27.9092 44.8916 28.4909 41.5248L29.4269 33.1686C27.6676 34.0594 27.0999 36.0292 23.3895 34.4982C23.3895 34.4982 19.7213 32.487 18.6987 32.1745C13.6233 30.6217 8.81868 34.7856 8.77318 34.8488L10.1068 41.4279C10.6928 44.8296 14.803 47.6313 19.2609 47.6313Z" fill="url(#paint1_linear)"/>
<path d="M31.6488 19.2668C31.2533 13.8202 27.4595 9.22728 22.2053 7.83568L22.4935 5.15375L24.7826 3.97993L24.8747 3.9331L26.4997 3.11099C26.8388 2.94004 27.0955 2.64168 27.2147 2.28017C27.3328 1.91975 27.3035 1.52666 27.1334 1.18693L26.9341 0.789481C26.9124 0.745925 26.8875 0.70237 26.8615 0.660992C26.4683 0.0425032 25.672 -0.177452 25.0198 0.15357L24.528 0.404014L24.4933 0.420348L19.8567 2.73424C19.5858 2.85837 19.4017 3.11535 19.3692 3.41261L18.9402 7.40666C12.2419 7.42844 6.78517 12.6551 6.30851 19.2668C4.96951 19.5282 4.00209 20.7042 4.00101 22.0762V23.4209C4.00317 24.9497 5.20134 26.2063 6.72017 26.2727L8.59976 40.8856C8.97676 45.459 12.568 48.9097 16.9501 48.9097H21.2531C25.6352 48.9097 29.2253 45.4612 29.598 40.9368L31.4841 26.2521C32.8968 26.0659 33.9541 24.8583 33.9563 23.4264V22.0805C33.9573 20.7085 32.9899 19.5271 31.6488 19.2668ZM18.977 9.55395C24.4803 9.55395 29.0011 13.8061 29.5016 19.2124H27.414C26.9254 14.957 23.3418 11.649 18.9803 11.649C14.6198 11.649 11.0286 14.957 10.5411 19.2124H8.45459C8.95292 13.8061 13.4715 9.55395 18.977 9.55395ZM25.3784 19.2124H23.0688C22.6246 17.3014 20.9292 15.9501 18.9781 15.9501C17.0259 15.9501 15.3316 17.3014 14.8874 19.2124H12.5778C13.0577 16.0317 15.7779 13.6808 18.9781 13.6808C22.1783 13.6808 24.8985 16.0317 25.3784 19.2124ZM9.93117 34.0866L8.92909 26.2858H16.8699L16.3575 31.1967C13.3383 31.0987 11.1976 32.7103 9.93334 34.0855L9.93117 34.0866ZM27.4194 40.7016C27.1378 44.124 24.4858 46.7047 21.252 46.7047H16.949C13.7142 46.7047 11.0622 44.124 10.774 40.6504L10.2518 36.5726C10.7296 35.7755 12.672 32.9651 16.1668 32.9988L15.5212 39.1772C15.4367 39.9851 16.0022 40.7136 16.7854 40.8007L17.2253 40.8497C17.274 40.8551 17.3228 40.8584 17.3715 40.8584C18.1125 40.8519 18.7278 40.2835 18.7961 39.5419L19.3984 33.773C19.5122 33.8242 19.6238 33.871 19.7386 33.9287C23.7686 35.9105 26.5658 35.3138 28.2222 34.4449L27.4205 40.7016H27.4194ZM28.5331 32.0308C27.9914 32.597 25.4792 34.7585 20.5229 32.3204C20.2066 32.1647 19.8989 32.033 19.5934 31.9121L20.1828 26.2847H29.2719L28.5331 32.0308ZM31.7907 23.4188C31.7907 23.6017 31.7192 23.7781 31.5913 23.9066C31.4635 24.0373 31.2891 24.1102 31.1071 24.1102H6.85017C6.47101 24.1102 6.16551 23.8021 6.16551 23.4231V22.0773C6.16551 21.6972 6.47209 21.3902 6.85017 21.3891H31.1071C31.4863 21.3891 31.7918 21.6972 31.7928 22.0773L31.7907 23.4188Z" fill="white"/>
<path d="M21.4839 43.0167C20.8253 43.1604 20.406 43.8127 20.549 44.4758C20.6909 45.1379 21.3398 45.5582 21.9996 45.4155C22.6583 45.274 23.0775 44.6206 22.9356 43.9586C22.8673 43.6406 22.6756 43.3619 22.4048 43.1855C22.1318 43.008 21.8003 42.9481 21.4839 43.0167ZM22.3625 40.2825C22.135 40.3326 21.9617 40.5133 21.9194 40.7431C21.8783 40.9718 21.979 41.2037 22.174 41.33C22.369 41.4563 22.6203 41.452 22.8099 41.3191C23.0006 41.1863 23.0927 40.9511 23.0439 40.7235C22.9768 40.4121 22.6713 40.215 22.3614 40.2825H22.3625ZM14.4412 43.7963C14.2115 43.8464 14.0653 44.0751 14.1151 44.3081C14.1649 44.539 14.3924 44.686 14.6232 44.6348C14.8528 44.5847 14.9991 44.356 14.9493 44.1252C14.9254 44.0141 14.8583 43.9161 14.7629 43.8551C14.6676 43.7931 14.5517 43.7724 14.4412 43.7963ZM19.1764 41.0513C18.8558 41.1199 18.6098 41.3779 18.5513 41.7013C18.4928 42.0247 18.6348 42.3525 18.9099 42.5311C19.1862 42.7085 19.5404 42.702 19.8091 42.5147C20.0799 42.3263 20.2099 41.9942 20.1395 41.673C20.0442 41.2331 19.613 40.9544 19.1753 41.0502L19.1764 41.0513ZM14.3621 41.0513C13.9244 41.146 13.6471 41.5794 13.7424 42.0193C13.8378 42.4581 14.27 42.7369 14.7066 42.641C15.1432 42.5452 15.4216 42.1118 15.3252 41.6719C15.2797 41.4618 15.1529 41.2777 14.972 41.1601C14.7911 41.0436 14.5712 41.0044 14.3621 41.0513ZM21.9183 38.9116C22.3842 38.8103 22.7417 38.4368 22.8273 37.9654C22.9118 37.495 22.7059 37.018 22.3051 36.76C21.9043 36.5008 21.3886 36.5095 20.9975 36.7828C20.6064 37.0561 20.4168 37.5396 20.5187 38.0067C20.6563 38.6448 21.2835 39.0499 21.9183 38.9116ZM16.5829 43.6025C16.2038 43.8421 16.09 44.343 16.3262 44.7241C16.5634 45.1052 17.0618 45.2206 17.442 44.9843C17.8212 44.7469 17.9371 44.2461 17.702 43.8639C17.5883 43.6798 17.4063 43.5481 17.1961 43.5002C16.987 43.4512 16.766 43.4882 16.5829 43.6025ZM24.7274 39.4462C24.9647 39.8274 25.4641 39.9428 25.8433 39.7043C26.2224 39.4648 26.3373 38.9639 26.1 38.5827C25.8628 38.2016 25.3633 38.0851 24.9842 38.3236C24.8011 38.4379 24.6722 38.6209 24.6234 38.831C24.5758 39.0412 24.6126 39.2633 24.7274 39.4462ZM24.6202 41.7656C24.241 42.004 24.1251 42.506 24.3623 42.8871C24.6007 43.2682 25.099 43.3847 25.4782 43.1463C25.8573 42.9078 25.9733 42.4058 25.736 42.0247C25.6223 41.8418 25.4413 41.7111 25.2312 41.6621C25.0221 41.6142 24.8022 41.6512 24.6202 41.7656ZM13.906 38.3976C13.5669 37.8532 12.8541 37.6899 12.3135 38.0296C11.7718 38.3704 11.6083 39.0858 11.9463 39.6303C12.2853 40.1747 12.9971 40.3391 13.5388 40.0005C13.7988 39.8361 13.984 39.5758 14.0533 39.2753C14.1216 38.9748 14.0685 38.659 13.906 38.3976Z" fill="white"/>
</g>
<defs>
<filter id="filter0_d" x="0" y="0" width="138" height="57" filterUnits="userSpaceOnUse" color-interpolation-filters="sRGB">
<feFlood flood-opacity="0" result="BackgroundImageFix"/>
<feColorMatrix in="SourceAlpha" type="matrix" values="0 0 0 0 0 0 0 0 0 0 0 0 0 0 0 0 0 0 127 0" result="hardAlpha"/>
<feOffset dy="4"/>
<feGaussianBlur stdDeviation="2"/>
<feComposite in2="hardAlpha" operator="out"/>
<feColorMatrix type="matrix" values="0 0 0 0 0 0 0 0 0 0 0 0 0 0 0 0 0 0 0.25 0"/>
<feBlend mode="normal" in2="BackgroundImageFix" result="effect1_dropShadow"/>
<feBlend mode="normal" in="SourceGraphic" in2="effect1_dropShadow" result="shape"/>
</filter>
<filter id="filter1_d" x="42.6833" y="20.9067" width="94.9584" height="29.8122" filterUnits="userSpaceOnUse" color-interpolation-filters="sRGB">
<feFlood flood-opacity="0" result="BackgroundImageFix"/>
<feColorMatrix in="SourceAlpha" type="matrix" values="0 0 0 0 0 0 0 0 0 0 0 0 0 0 0 0 0 0 127 0" result="hardAlpha"/>
<feOffset dy="4"/>
<feGaussianBlur stdDeviation="2"/>
<feComposite in2="hardAlpha" operator="out"/>
<feColorMatrix type="matrix" values="0 0 0 0 0 0 0 0 0 0 0 0 0 0 0 0 0 0 0.25 0"/>
<feBlend mode="normal" in2="BackgroundImageFix" result="effect1_dropShadow"/>
<feBlend mode="normal" in="SourceGraphic" in2="effect1_dropShadow" result="shape"/>
</filter>
<linearGradient id="paint0_linear" x1="61.0952" y1="40.1278" x2="65.698" y2="40.1278" gradientUnits="userSpaceOnUse">
<stop stop-color="#59C4C9"/>
<stop offset="0.37" stop-color="#41B1BE"/>
<stop offset="1" stop-color="#0F8BA8"/>
</linearGradient>
<linearGradient id="paint1_linear" x1="8.77318" y1="39.7304" x2="29.4263" y2="39.7304" gradientUnits="userSpaceOnUse">
<stop stop-color="#59C4C9"/>
<stop offset="0.37" stop-color="#41B1BE"/>
<stop offset="1" stop-color="#0F8BA8"/>
</linearGradient>
<clipPath id="clip0">
<rect width="130" height="49" fill="white" transform="translate(4)"/>
</clipPath>
</defs>
</svg>
