<svg width="58" height="58" viewBox="0 0 58 58" fill="none" xmlns="http://www.w3.org/2000/svg">
<g filter="url(#filter0_d)">
<path d="M4 8C4 3.58172 7.58172 0 12 0H46C50.4183 0 54 3.58172 54 8V42C54 46.4183 50.4183 50 46 50H12C7.58172 50 4 46.4183 4 42V8Z" fill="#F6F7F8"/>
<path d="M22.6 22.9C22.5 22.9 22.2 22.8 21.9 22.8H20.4V24.9H21.9C22.4 24.9 22.8 24.8 23 24.6C23.2 24.4 23.3 24.2 23.3 23.8C23.3 23.6 23.2 23.3 23.1 23.2C23 23.1 22.8 23 22.6 22.9Z" fill="#F8A644"/>
<path d="M26.5 22.8C26.4 23.2 26.3 23.5 26.2 23.9L25.6 25.6H27.6L26.9 24C26.7 23.5 26.6 23.1 26.5 22.8Z" fill="#F8A644"/>
<path d="M43.5 24.2C43.5 22.9 44.4 21.7 45.6 21.3V16C45.6 14.9 44.7 14 43.6 14H15C13.9 14 13 14.9 13 16V21.3C14.2 21.7 15.1 22.9 15.1 24.2C15.1 25.5 14.2 26.7 13 27.1V33.4C13 34.5 13.9 35.4 15 35.4H43.5C44.6 35.4 45.5 34.5 45.5 33.4V27.1C44.4 26.7 43.5 25.5 43.5 24.2ZM21.9 25.6H20.4V28H19.6V22.2H21.8C22.2 22.2 22.5 22.2 22.7 22.3C23 22.3 23.2 22.4 23.4 22.6C23.6 22.7 23.8 22.9 23.9 23.2C24 23.4 24.1 23.7 24.1 24C24.1 24.5 23.9 24.9 23.6 25.3C23.3 25.5 22.7 25.6 21.9 25.6ZM28.4 28L27.7 26.2H25.3L24.6 28H23.8L26 22.2H26.8L29.2 28H28.4ZM34 27.2C33.8 27.5 33.6 27.7 33.2 27.8C32.9 28 32.5 28 32.1 28C31.6 28 31.1 27.9 30.8 27.8C30.4 27.6 30.2 27.4 30 27.1C29.8 26.8 29.7 26.4 29.7 26.1L30.4 26C30.4 26.3 30.5 26.5 30.6 26.7C30.7 26.9 30.9 27 31.2 27.2C31.5 27.3 31.8 27.4 32.1 27.4C32.4 27.4 32.7 27.4 32.9 27.3C33.1 27.2 33.3 27.1 33.4 26.9C33.5 26.7 33.6 26.6 33.6 26.4C33.6 26.2 33.5 26.1 33.4 25.9C33.3 25.8 33.1 25.6 32.9 25.6C32.7 25.5 32.4 25.4 31.9 25.3C31.4 25.2 31 25.1 30.8 24.9C30.5 24.8 30.3 24.6 30.2 24.4C30.1 24.2 30 23.9 30 23.7C30 23.4 30.1 23.1 30.3 22.9C30.5 22.6 30.7 22.4 31 22.3C31.3 22.2 31.7 22.1 32.1 22.1C32.5 22.1 32.9 22.2 33.2 22.3C33.5 22.4 33.8 22.6 34 22.9C34.2 23.2 34.3 23.5 34.3 23.8L33.6 23.9C33.6 23.5 33.4 23.3 33.2 23.1C33 22.9 32.6 22.8 32.2 22.8C31.7 22.8 31.4 22.9 31.2 23.1C31 23.3 30.9 23.5 30.9 23.7C30.9 23.9 31 24.1 31.1 24.2C31.2 24.3 31.6 24.5 32.3 24.6C32.9 24.7 33.4 24.9 33.6 25C33.9 25.2 34.2 25.4 34.4 25.6C34.6 25.8 34.6 26.1 34.6 26.4C34.3 26.7 34.2 27 34 27.2ZM39.5 27.2C39.3 27.5 39.1 27.7 38.7 27.8C38.4 28 38 28 37.6 28C37.1 28 36.6 27.9 36.3 27.8C35.9 27.6 35.7 27.4 35.5 27.1C35.3 26.8 35.2 26.4 35.2 26.1L35.9 26C35.9 26.3 36 26.5 36.1 26.7C36.2 26.9 36.4 27 36.7 27.2C37 27.3 37.3 27.4 37.6 27.4C37.9 27.4 38.2 27.4 38.4 27.3C38.6 27.2 38.8 27.1 38.9 26.9C39 26.7 39.1 26.6 39.1 26.4C39.1 26.2 39 26.1 38.9 25.9C38.8 25.8 38.6 25.6 38.4 25.6C38.2 25.5 37.9 25.4 37.4 25.3C36.9 25.2 36.5 25.1 36.3 24.9C36 24.8 35.8 24.6 35.7 24.4C35.6 24.2 35.5 23.9 35.5 23.7C35.5 23.4 35.6 23.1 35.7 22.9C35.9 22.6 36.1 22.4 36.4 22.3C36.7 22.2 37.1 22.1 37.5 22.1C37.9 22.1 38.3 22.2 38.6 22.3C38.9 22.4 39.2 22.6 39.4 22.9C39.6 23.2 39.7 23.5 39.7 23.8L39 23.9C39 23.5 38.8 23.3 38.6 23.1C38.4 22.9 38 22.8 37.6 22.8C37.1 22.8 36.8 22.9 36.6 23.1C36.4 23.3 36.3 23.5 36.3 23.7C36.3 23.9 36.4 24.1 36.5 24.2C36.6 24.3 37 24.5 37.7 24.6C38.3 24.7 38.8 24.9 39 25C39.3 25.2 39.6 25.4 39.8 25.6C40 25.8 40 26.1 40 26.4C39.7 26.7 39.6 27 39.5 27.2Z" fill="#F8A644"/>
</g>
<defs>
<filter id="filter0_d" x="0" y="0" width="58" height="58" filterUnits="userSpaceOnUse" color-interpolation-filters="sRGB">
<feFlood flood-opacity="0" result="BackgroundImageFix"/>
<feColorMatrix in="SourceAlpha" type="matrix" values="0 0 0 0 0 0 0 0 0 0 0 0 0 0 0 0 0 0 127 0" result="hardAlpha"/>
<feOffset dy="4"/>
<feGaussianBlur stdDeviation="2"/>
<feComposite in2="hardAlpha" operator="out"/>
<feColorMatrix type="matrix" values="0 0 0 0 0 0 0 0 0 0 0 0 0 0 0 0 0 0 0.25 0"/>
<feBlend mode="normal" in2="BackgroundImageFix" result="effect1_dropShadow"/>
<feBlend mode="normal" in="SourceGraphic" in2="effect1_dropShadow" result="shape"/>
</filter>
</defs>
</svg>
